<svg width="32" height="32" viewBox="0 0 32 32" fill="none" xmlns="http://www.w3.org/2000/svg">
  <defs>
    <linearGradient id="gradient" x1="0%" y1="0%" x2="100%" y2="100%">
      <stop offset="0%" style="stop-color:#667eea;stop-opacity:1" />
      <stop offset="100%" style="stop-color:#764ba2;stop-opacity:1" />
    </linearGradient>
  </defs>
  <rect width="32" height="32" rx="6" fill="url(#gradient)"/>
  <path d="M8 12c0-1.1.9-2 2-2h4c1.1 0 2 .9 2 2v8c0 1.1-.9 2-2 2h-4c-1.1 0-2-.9-2-2v-8z" fill="white" opacity="0.9"/>
  <path d="M18 8c0-1.1.9-2 2-2h4c1.1 0 2 .9 2 2v16c0 1.1-.9 2-2 2h-4c-1.1 0-2-.9-2-2V8z" fill="white" opacity="0.7"/>
  <circle cx="11" cy="16" r="1.5" fill="url(#gradient)"/>
  <circle cx="21" cy="16" r="1.5" fill="url(#gradient)"/>
</svg>